<?xml version="1.0" encoding="UTF-8"?>
<svg id="Layer_2" xmlns="http://www.w3.org/2000/svg"
     viewBox="0 0 2278.95 1775.18">
    <defs>
        <style>.cls-1{filter:url(#drop-shadow-1);}.cls-2{fill:#161616;stroke-width:0px;}</style>
        <filter id="drop-shadow-1" filterUnits="userSpaceOnUse">
            <feOffset dx="7" dy="7"/>
            <feGaussianBlur result="blur" stdDeviation="5"/>
            <feFlood flood-color="#000" flood-opacity=".6"/>
            <feComposite in2="blur" operator="in"/>
            <feComposite in="SourceGraphic"/>
        </filter>
    </defs>
    <g id="Layer_1-2">
        <g class="cls-1">
            <polygon class="cls-2"
                     points="1135.46 584.45 527.76 1252.33 930.63 1252.33 1135.46 1027.22 1340.29 1252.33 1743.15 1252.33 1135.46 584.45"/>
            <polygon class="cls-2"
                     points="1240.19 110.69 1139.48 0 1038.76 110.69 0 1252.33 402.87 1252.33 1139.48 442.77 1876.09 1252.33 2278.95 1252.33 1240.19 110.69"/>
            <polygon class="cls-2" points="1211.37 1252.33 1135.46 1168.9 1059.55 1252.33 1211.37 1252.33"/>
            <path class="cls-2"
                  d="m110.82,1734.48H29.01l-17.93,39.69H0l64.88-141.04h10.27l64.88,141.04h-11.08l-18.14-39.69Zm-3.83-8.66l-37.07-81.4-36.87,81.4h73.94Z"/>
            <path class="cls-2"
                  d="m251.35,1769.84c-9.34-3.56-16.63-8.16-21.87-13.8l4.64-7.66c4.97,5.24,11.65,9.51,20.05,12.8,8.39,3.29,17.22,4.93,26.49,4.93,13.43,0,23.57-2.55,30.43-7.66,6.85-5.1,10.27-11.75,10.27-19.94,0-6.31-1.81-11.35-5.44-15.11-3.63-3.76-8.13-6.65-13.5-8.66-5.38-2.01-12.63-4.1-21.77-6.25-10.34-2.55-18.63-5.04-24.88-7.46-6.25-2.42-11.55-6.14-15.92-11.18-4.37-5.03-6.55-11.78-6.55-20.25,0-6.85,1.81-13.13,5.44-18.84,3.62-5.71,9.17-10.24,16.62-13.6,7.46-3.36,16.76-5.04,27.91-5.04,7.79,0,15.44,1.14,22.97,3.42,7.52,2.29,14.03,5.38,19.54,9.27l-3.83,8.26c-5.64-3.9-11.85-6.85-18.63-8.87-6.79-2.01-13.47-3.02-20.05-3.02-13.03,0-22.9,2.62-29.62,7.86-6.71,5.24-10.07,12.03-10.07,20.36,0,6.31,1.81,11.35,5.44,15.11,3.62,3.76,8.12,6.65,13.5,8.66,5.37,2.01,12.69,4.16,21.96,6.45,10.34,2.55,18.61,5.04,24.79,7.46,6.18,2.42,11.45,6.08,15.82,10.98,4.36,4.9,6.54,11.52,6.54,19.85,0,6.85-1.85,13.1-5.54,18.74-3.7,5.64-9.37,10.14-17.03,13.5-7.65,3.36-17.05,5.03-28.2,5.03-10.35,0-20.18-1.78-29.52-5.34Z"/>
            <path class="cls-2"
                  d="m452.24,1769.84c-9.34-3.56-16.63-8.16-21.87-13.8l4.64-7.66c4.97,5.24,11.65,9.51,20.05,12.8,8.39,3.29,17.22,4.93,26.49,4.93,13.43,0,23.57-2.55,30.43-7.66,6.85-5.1,10.27-11.75,10.27-19.94,0-6.31-1.81-11.35-5.44-15.11-3.63-3.76-8.13-6.65-13.5-8.66-5.38-2.01-12.63-4.1-21.77-6.25-10.34-2.55-18.63-5.04-24.88-7.46-6.25-2.42-11.55-6.14-15.92-11.18-4.37-5.03-6.55-11.78-6.55-20.25,0-6.85,1.81-13.13,5.44-18.84,3.62-5.71,9.17-10.24,16.62-13.6,7.46-3.36,16.76-5.04,27.91-5.04,7.79,0,15.44,1.14,22.97,3.42,7.52,2.29,14.03,5.38,19.54,9.27l-3.83,8.26c-5.64-3.9-11.85-6.85-18.63-8.87-6.79-2.01-13.47-3.02-20.05-3.02-13.03,0-22.9,2.62-29.62,7.86-6.71,5.24-10.07,12.03-10.07,20.36,0,6.31,1.81,11.35,5.44,15.11,3.62,3.76,8.12,6.65,13.5,8.66,5.37,2.01,12.69,4.16,21.96,6.45,10.34,2.55,18.61,5.04,24.79,7.46,6.18,2.42,11.45,6.08,15.82,10.98,4.36,4.9,6.54,11.52,6.54,19.85,0,6.85-1.85,13.1-5.54,18.74-3.7,5.64-9.37,10.14-17.03,13.5-7.65,3.36-17.05,5.03-28.2,5.03-10.35,0-20.18-1.78-29.52-5.34Z"/>
            <path class="cls-2"
                  d="m742.88,1764.9v9.27h-97.32v-141.04h94.3v9.27h-84.02v55.61h75.16v9.07h-75.16v57.83h87.04Z"/>
            <path class="cls-2" d="m885.53,1642.4h-50.77v-9.27h111.83v9.27h-50.78v131.77h-10.27v-131.77Z"/>
            <path class="cls-2"
                  d="m1280.84,1704.26h9.87v52.79c-6.18,5.92-13.67,10.42-22.46,13.5-8.8,3.1-18.11,4.64-27.91,4.64-13.97,0-26.56-3.09-37.78-9.27-11.22-6.18-20.02-14.71-26.4-25.59-6.38-10.88-9.57-23.1-9.57-36.67s3.19-25.79,9.57-36.67c6.38-10.88,15.18-19.41,26.4-25.59,11.21-6.18,23.87-9.27,37.98-9.27,10.34,0,19.85,1.65,28.52,4.94,8.66,3.29,16.08,8.09,22.26,14.4l-6.45,6.86c-5.91-5.91-12.52-10.17-19.85-12.8-7.32-2.62-15.41-3.93-24.28-3.93-12.09,0-23,2.69-32.74,8.06-9.74,5.37-17.37,12.79-22.87,22.26-5.51,9.47-8.26,20.04-8.26,31.74s2.79,22.06,8.37,31.53c5.57,9.47,13.2,16.92,22.87,22.37,9.67,5.44,20.55,8.15,32.64,8.15,16.12,0,29.48-4.29,40.09-12.89v-48.56Z"/>
            <path class="cls-2"
                  d="m1511.95,1774.17l-33.65-47.15c-4.97.68-9.53,1.01-13.7,1.01h-40.3v46.14h-10.27v-141.04h50.57c17.73,0,31.64,4.2,41.7,12.6,10.07,8.39,15.12,20.04,15.12,34.95,0,11.15-2.86,20.52-8.56,28.11-5.71,7.6-13.87,12.93-24.48,16.02l35.26,49.36h-11.68Zm-47.35-55.21c15.04,0,26.53-3.32,34.45-9.97,7.92-6.65,11.89-16.09,11.89-28.31s-3.97-21.66-11.89-28.31c-7.92-6.64-19.41-9.97-34.45-9.97h-40.3v76.56h40.3Z"/>
            <path class="cls-2"
                  d="m1659.63,1765.81c-11.15-6.25-19.91-14.81-26.29-25.69-6.38-10.88-9.57-23.03-9.57-36.47s3.19-25.59,9.57-36.47c6.38-10.88,15.14-19.44,26.29-25.69,11.15-6.25,23.64-9.37,37.48-9.37s26.33,3.1,37.48,9.27c11.15,6.18,19.91,14.71,26.29,25.59,6.38,10.88,9.57,23.1,9.57,36.67s-3.19,25.79-9.57,36.67c-6.38,10.88-15.14,19.41-26.29,25.59-11.15,6.18-23.64,9.27-37.48,9.27s-26.33-3.12-37.48-9.37Zm69.52-8.16c9.53-5.37,17.05-12.8,22.56-22.26,5.51-9.47,8.27-20.05,8.27-31.74s-2.76-22.27-8.27-31.74c-5.51-9.47-13.03-16.89-22.56-22.26-9.54-5.37-20.22-8.06-32.04-8.06s-22.54,2.69-32.14,8.06c-9.6,5.37-17.16,12.79-22.67,22.26-5.51,9.47-8.26,20.04-8.26,31.74s2.75,22.26,8.26,31.74c5.51,9.47,13.06,16.89,22.67,22.26,9.6,5.37,20.32,8.05,32.14,8.05s22.5-2.68,32.04-8.05Z"/>
            <path class="cls-2"
                  d="m1897.89,1759.66c-9.87-10.34-14.81-25.45-14.81-45.33v-81.2h10.28v80.8c0,17.33,3.96,30.29,11.88,38.89,7.92,8.6,19.41,12.89,34.46,12.89s26.33-4.29,34.25-12.89c7.92-8.6,11.89-21.56,11.89-38.89v-80.8h10.27v81.2c0,19.88-4.97,34.99-14.91,45.33-9.94,10.34-23.84,15.51-41.7,15.51s-31.74-5.17-41.61-15.51Z"/>
            <path class="cls-2"
                  d="m2214.53,1645.73c10.07,8.39,15.12,20.04,15.12,34.95s-5.04,26.37-15.12,34.76c-10.07,8.4-23.97,12.59-41.7,12.59h-40.3v46.14h-10.27v-141.04h50.57c17.73,0,31.64,4.2,41.7,12.6Zm-7.25,63.17c7.92-6.58,11.89-15.99,11.89-28.21s-3.97-21.66-11.89-28.31c-7.92-6.64-19.41-9.97-34.45-9.97h-40.3v76.36h40.3c15.04,0,26.53-3.29,34.45-9.87Z"/>
            <path class="cls-2"
                  d="m99.74,1502.33h-28.94v49.84H17.75v-187.56h85.74c16.97,0,31.71,2.82,44.22,8.44,12.5,5.62,22.15,13.67,28.94,24.12,6.79,10.45,10.18,22.74,10.18,36.84s-3.18,25.41-9.51,35.5c-6.35,10.09-15.41,18-27.2,23.71l40.46,58.95h-56.81l-34.03-49.84Zm25.18-88.69c-5.54-4.82-13.75-7.23-24.65-7.23h-29.47v54.93h29.47c10.9,0,19.11-2.36,24.65-7.1,5.54-4.73,8.31-11.48,8.31-20.23s-2.77-15.54-8.31-20.37Z"/>
            <path class="cls-2"
                  d="m420.2,1511.18v41h-150.58v-187.56h147.1v41h-94.58v31.62h83.33v39.66h-83.33v34.3h98.06Z"/>
            <path class="cls-2"
                  d="m628.94,1515.73h-79.31l-14.74,36.44h-54.13l82.8-187.56h52.25l83.06,187.56h-55.2l-14.74-36.44Zm-15.54-39.12l-24.12-60.02-24.12,60.02h48.23Z"/>
            <path class="cls-2" d="m767.47,1364.61h53.05v145.5h89.49v42.06h-142.55v-187.56Z"/>
            <path class="cls-2"
                  d="m1266.11,1364.61l-60.82,187.56h-56.81l-35.91-114.14-37.51,114.14h-56.81l-60.82-187.56h54.66l37.78,119.77,39.66-119.77h48.77l37.78,120.84,39.39-120.84h50.64Z"/>
            <path class="cls-2"
                  d="m1377.45,1543.33c-15.81-8.39-28.22-20-37.24-34.83-9.02-14.82-13.53-31.52-13.53-50.11s4.51-35.28,13.53-50.11c9.02-14.82,21.44-26.43,37.24-34.83,15.81-8.4,33.63-12.6,53.46-12.6s37.65,4.2,53.46,12.6c15.81,8.4,28.22,20.01,37.24,34.83,9.02,14.83,13.53,31.53,13.53,50.11s-4.51,35.28-13.53,50.11c-9.02,14.83-21.44,26.44-37.24,34.83-15.81,8.4-33.63,12.6-53.46,12.6s-37.65-4.2-53.46-12.6Zm79.18-38.04c7.68-4.47,13.75-10.76,18.22-18.89,4.46-8.12,6.7-17.46,6.7-28s-2.24-19.87-6.7-28c-4.46-8.13-10.54-14.43-18.22-18.89-7.68-4.47-16.26-6.7-25.73-6.7s-18.04,2.23-25.73,6.7c-7.68,4.46-13.75,10.76-18.22,18.89-4.47,8.13-6.7,17.46-6.7,28s2.23,19.88,6.7,28c4.46,8.13,10.53,14.43,18.22,18.89,7.68,4.46,16.25,6.69,25.73,6.69s18.04-2.23,25.73-6.69Z"/>
            <path class="cls-2"
                  d="m1698.58,1502.33h-28.94v49.84h-53.05v-187.56h85.74c16.97,0,31.71,2.82,44.22,8.44,12.5,5.62,22.15,13.67,28.94,24.12,6.79,10.45,10.18,22.74,10.18,36.84s-3.18,25.41-9.51,35.5c-6.35,10.09-15.41,18-27.2,23.71l40.46,58.95h-56.81l-34.03-49.84Zm25.18-88.69c-5.54-4.82-13.75-7.23-24.65-7.23h-29.47v54.93h29.47c10.9,0,19.11-2.36,24.65-7.1,5.54-4.73,8.31-11.48,8.31-20.23s-2.77-15.54-8.31-20.37Z"/>
            <path class="cls-2" d="m1868.46,1364.61h53.05v145.5h89.49v42.06h-142.55v-187.56Z"/>
            <path class="cls-2"
                  d="m2085.5,1364.61h88.69c20.54,0,38.76,3.84,54.66,11.52,15.9,7.68,28.22,18.58,36.98,32.69,8.75,14.11,13.13,30.64,13.13,49.57s-4.38,35.46-13.13,49.57c-8.76,14.11-21.08,25.01-36.98,32.69-15.9,7.68-34.12,11.52-54.66,11.52h-88.69v-187.56Zm86.55,145.23c16.07,0,28.98-4.55,38.71-13.66,9.74-9.11,14.61-21.7,14.61-37.78s-4.87-28.67-14.61-37.78c-9.73-9.11-22.64-13.66-38.71-13.66h-33.49v102.89h33.49Z"/>
        </g>
    </g>
</svg>